<svg xmlns="http://www.w3.org/2000/svg" xmlns:xlink="http://www.w3.org/1999/xlink" viewBox="0 0 15.84 16.5"><defs><style>.cls-1{fill:url(#Degradado_sin_nombre_5);}.cls-2{fill:#1d1d1b;}</style><linearGradient id="Degradado_sin_nombre_5" x1="2.42" y1="8.39" x2="15.76" y2="8.39" gradientUnits="userSpaceOnUse"><stop offset="0.29"/><stop offset="0.82" stop-color="#c3c3c3" stop-opacity="0.23"/><stop offset="0.88" stop-color="#fff" stop-opacity="0"/></linearGradient></defs><title>Icon-web_n</title><g id="Capa_2" data-name="Capa 2"><g id="Capa_1-2" data-name="Capa 1"><path class="cls-1" d="M2.56,5.67l-.06.54a.53.53,0,0,1,.25,0h3a.37.37,0,0,1,.35.4v3.64a.38.38,0,0,1-.35.41h-3a.33.33,0,0,1-.24-.12v.61H15.79l.05-5.44ZM3.05,6a0,0,0,0,1,0,0H2.73a0,0,0,0,1,0,0V5.8a0,0,0,0,1,0,0H3a0,0,0,0,1,0,0ZM4.27,6a0,0,0,0,1,0,0H4a0,0,0,0,1,0,0V5.8a0,0,0,0,1,0,0h.28a0,0,0,0,1,0,0ZM5.49,6a0,0,0,0,1,0,0H5.17a0,0,0,0,1,0,0V5.8a0,0,0,0,1,0,0h.28a0,0,0,0,1,0,0ZM3.05,11a0,0,0,0,1,0,0H2.73a0,0,0,0,1,0,0v-.23a0,0,0,0,1,0,0H3a0,0,0,0,1,0,0Zm1.22,0a0,0,0,0,1,0,0H4a0,0,0,0,1,0,0v-.23a0,0,0,0,1,0,0h.28a0,0,0,0,1,0,0Zm1.22,0a0,0,0,0,1,0,0H5.17a0,0,0,0,1,0,0v-.23a0,0,0,0,1,0,0h.28a0,0,0,0,1,0,0Zm7-5.18a0,0,0,0,1,0,0h.29a0,0,0,0,1,0,0V6a0,0,0,0,1,0,0h-.29a0,0,0,0,1,0,0Zm-1.22,0a0,0,0,0,1,0,0h.29a0,0,0,0,1,0,0V6a0,0,0,0,1,0,0h-.29a0,0,0,0,1,0,0ZM10,5.8a0,0,0,0,1,0,0h.28a0,0,0,0,1,0,0V6a0,0,0,0,1,0,0h-.28a0,0,0,0,1,0,0Zm-1.22,0a0,0,0,0,1,0,0h.28a0,0,0,0,1,0,0V6a0,0,0,0,1,0,0H8.83a0,0,0,0,1,0,0Zm-1.22,0a0,0,0,0,1,0,0h.28a0,0,0,0,1,0,0V6a0,0,0,0,1,0,0H7.61a0,0,0,0,1,0,0ZM6.71,11a0,0,0,0,1,0,0H6.39a0,0,0,0,1,0,0v-.23a0,0,0,0,1,0,0h.28a0,0,0,0,1,0,0ZM6.71,6a0,0,0,0,1,0,0H6.39a0,0,0,0,1,0,0V5.8a0,0,0,0,1,0,0h.28a0,0,0,0,1,0,0Zm1.22,5a0,0,0,0,1,0,0H7.61a0,0,0,0,1,0,0v-.23a0,0,0,0,1,0,0h.28a0,0,0,0,1,0,0Zm1.22,0a0,0,0,0,1,0,0H8.83a0,0,0,0,1,0,0v-.23a0,0,0,0,1,0,0h.28a0,0,0,0,1,0,0Zm1.22,0a0,0,0,0,1,0,0h-.28a0,0,0,0,1,0,0v-.23a0,0,0,0,1,0,0h.28a0,0,0,0,1,0,0Zm1.22,0a0,0,0,0,1,0,0h-.29a0,0,0,0,1,0,0v-.23a0,0,0,0,1,0,0h.29a0,0,0,0,1,0,0Zm1.22,0a0,0,0,0,1,0,0h-.29a0,0,0,0,1,0,0v-.23a0,0,0,0,1,0,0h.29a0,0,0,0,1,0,0Zm.36-.77a.38.38,0,0,1-.36.41H7.35A.38.38,0,0,1,7,10.21V6.55a.38.38,0,0,1,.36-.4h5.46a.38.38,0,0,1,.36.4Z"/><path class="cls-2" d="M13.74,11.12l.08,1.37a1.42,1.42,0,0,1-.6,1.29,1.52,1.52,0,0,1-.72.25l-.69,0-1.37,0,.13-.06c-.77.78-1.53,1.57-2.31,2.34l-.15.15L8,16.35c-.78-.78-1.54-1.56-2.29-2.36l.11,0-1.5,0A4.09,4.09,0,0,1,3.52,14a1.43,1.43,0,0,1-.7-.39,1.33,1.33,0,0,1-.37-.7,6.54,6.54,0,0,1,0-.76V10.59l0,.06C1.67,9.88.88,9.12.09,8.36L0,8.27l.09-.09L2.37,5.81,2.31,6l0-1.51a4.29,4.29,0,0,1,0-.79,1.52,1.52,0,0,1,.41-.77,1.54,1.54,0,0,1,.77-.42,4.51,4.51,0,0,1,.8,0h1.5l-.18.08L7.94.17,8.12,0l.16.17,2.29,2.36-.13-.06,1.43,0c.25,0,.46,0,.74,0a1.36,1.36,0,0,1,.71.32,1.57,1.57,0,0,1,.49,1.4l-.07,1.43h0l-.07-1.43a1.38,1.38,0,0,0-.48-1.2,1.81,1.81,0,0,0-1.28-.22l-1.43,0h-.08L10.3,2.8,7.94.51h.34L6,2.84l-.07.08H4.29a5.43,5.43,0,0,0-.71,0,1.09,1.09,0,0,0-.53.28,1.16,1.16,0,0,0-.3.54,5,5,0,0,0,0,.7L2.7,6V6l-.06.06L.28,8.36V8.18C1,9,1.79,9.76,2.56,10.54l0,0V12.1a5.7,5.7,0,0,0,0,.73,1.24,1.24,0,0,0,.34.61,1.19,1.19,0,0,0,.61.31,5.84,5.84,0,0,0,.73,0l1.5,0h.06l.05,0c.8.76,1.58,1.52,2.36,2.29H8c.76-.78,1.55-1.54,2.33-2.31l.06-.05h.08l1.37,0a2.12,2.12,0,0,0,1.25-.16,1.19,1.19,0,0,0,.56-1.06l.08-1.37Z"/></g></g></svg>